<svg xmlns="http://www.w3.org/2000/svg" viewBox="0 0 500 500"><g id="freepik--background-complete--inject-167"><rect y="382.4" width="500" height="0.25" style="fill:#ebebeb"></rect><rect x="416.78" y="398.49" width="33.12" height="0.25" style="fill:#ebebeb"></rect><rect x="322.53" y="401.21" width="8.69" height="0.25" style="fill:#ebebeb"></rect><rect x="396.59" y="389.21" width="19.19" height="0.25" style="fill:#ebebeb"></rect><rect x="52.46" y="390.89" width="43.19" height="0.25" style="fill:#ebebeb"></rect><rect x="104.56" y="390.89" width="6.33" height="0.25" style="fill:#ebebeb"></rect><rect x="131.47" y="395.11" width="93.68" height="0.25" style="fill:#ebebeb"></rect><path d="M237,337.8H43.91a5.71,5.71,0,0,1-5.7-5.71V60.66A5.71,5.71,0,0,1,43.91,55H237a5.71,5.71,0,0,1,5.71,5.71V332.09A5.71,5.71,0,0,1,237,337.8ZM43.91,55.2a5.46,5.46,0,0,0-5.45,5.46V332.09a5.46,5.46,0,0,0,5.45,5.46H237a5.47,5.47,0,0,0,5.46-5.46V60.66A5.47,5.47,0,0,0,237,55.2Z" style="fill:#ebebeb"></path><path d="M453.31,337.8H260.21a5.72,5.72,0,0,1-5.71-5.71V60.66A5.72,5.72,0,0,1,260.21,55h193.1A5.71,5.71,0,0,1,459,60.66V332.09A5.71,5.71,0,0,1,453.31,337.8ZM260.21,55.2a5.47,5.47,0,0,0-5.46,5.46V332.09a5.47,5.47,0,0,0,5.46,5.46h193.1a5.47,5.47,0,0,0,5.46-5.46V60.66a5.47,5.47,0,0,0-5.46-5.46Z" style="fill:#ebebeb"></path><rect x="251.45" y="121.54" width="163.73" height="145.28" style="fill:#f0f0f0"></rect><rect x="255.54" y="125.52" width="155.32" height="137.4" style="fill:#e0e0e0"></rect><path d="M371.1,137.85a14.26,14.26,0,0,0-8.59,2,10.69,10.69,0,0,1,4.8-.73,10.85,10.85,0,1,1-11.71,11.24c0,.23-.11.43-.13.66a14.46,14.46,0,1,0,15.63-13.18Z" style="fill:#fff"></path><polygon points="410.86 198.54 410.86 262.92 255.54 262.92 255.54 233.56 259.68 233.56 259.68 236.61 262.1 236.61 262.1 248.57 262.92 248.57 262.92 231.9 264.27 231.9 264.27 242.59 265.77 242.59 265.77 217.14 267.12 217.14 267.12 227.83 270.89 227.83 270.89 223.89 272.67 223.89 272.67 209.38 273.74 209.38 273.74 209.13 275.52 209.13 275.52 194.63 276.79 194.63 276.79 196.76 297.67 196.76 297.67 190.27 301.24 190.27 301.24 167.25 302.64 167.25 302.64 190.27 307.6 190.27 307.6 196.76 309.89 196.76 309.89 227.29 320.57 227.29 320.57 218.13 316.76 218.13 316.76 216.35 320.57 216.35 320.57 214.06 330.75 214.06 330.75 190.66 333.3 190.66 333.3 187.09 345.25 187.09 345.25 190.66 347.04 190.66 347.04 222.97 352.63 222.97 352.63 237.98 355.5 237.98 355.5 226.02 357.92 226.02 357.92 222.97 363.52 222.97 363.52 212.54 366.58 212.54 366.58 205.16 370.35 205.16 370.35 194.41 371.69 194.41 371.69 205.16 375.46 205.16 375.46 212.54 378.53 212.54 378.53 222.97 384.13 222.97 384.13 226.02 386.54 226.02 386.54 237.98 390.21 237.98 390.21 206.56 391.56 206.56 391.56 217.24 396.4 217.24 396.4 237.98 398.18 237.98 398.18 198.54 399.96 198.54 399.96 184.04 401.23 184.04 401.23 189.17 410.42 193.45 410.42 198.54 410.86 198.54" style="fill:#ebebeb"></polygon><g style="opacity:0.2"><polygon points="292 125.52 255.55 262.62 255.55 198.2 274.79 125.52 292 125.52" style="fill:#fff"></polygon><polygon points="304.91 125.52 268.14 262.92 262.27 262.92 299.04 125.52 304.91 125.52" style="fill:#fff"></polygon></g><polygon points="410.86 212.22 410.86 234.18 403.42 262.92 397.56 262.92 410.86 212.22" style="fill:#fff"></polygon><rect x="307.1" y="123.05" width="2.62" height="142.94" style="fill:#f0f0f0"></rect><rect x="357.81" y="123.05" width="2.62" height="142.94" style="fill:#f0f0f0"></rect><path d="M388.49,118s3.76,49.15,25.43,74.2c0,0-15.78,63.26-15.77,85.32l29.32-5.41L416.9,192.59,422,118Z" style="fill:#f0f0f0"></path><path d="M278.13,118s-3.77,49.15-25.43,74.2c0,0,15.78,63.26,15.77,85.32l-29.32-5.41,10.56-79.54L244.66,118Z" style="fill:#f0f0f0"></path><rect x="240.41" y="115.66" width="185.8" height="7.4" rx="2.12" style="fill:#f5f5f5"></rect><rect x="89.84" y="189.85" width="27.53" height="38.96" transform="translate(-105.72 312.94) rotate(-90)" style="fill:#e0e0e0"></rect><rect x="91.64" y="191.68" width="23.94" height="35.3" transform="translate(-105.72 312.94) rotate(-90)" style="fill:#ebebeb"></rect><rect x="103.35" y="155.26" width="27.53" height="38.96" transform="translate(-57.62 291.86) rotate(-90)" style="fill:#e0e0e0"></rect><rect x="105.15" y="157.09" width="23.94" height="35.3" transform="translate(-57.62 291.86) rotate(-90)" style="fill:#ebebeb"></rect><rect x="130.48" y="195.57" width="24.79" height="35.08" style="fill:#e0e0e0"></rect><rect x="132.1" y="197.22" width="21.56" height="31.78" style="fill:#ebebeb"></rect><rect x="141.84" y="149.55" width="27.53" height="38.96" style="fill:#e0e0e0"></rect><rect x="143.64" y="151.38" width="23.94" height="35.3" style="fill:#ebebeb"></rect><rect x="168.16" y="191.09" width="21.56" height="30.51" transform="translate(385.29 27.4) rotate(90)" style="fill:#e0e0e0"></rect><rect x="169.57" y="192.53" width="18.75" height="27.64" transform="translate(385.29 27.4) rotate(90)" style="fill:#ebebeb"></rect></g><g id="freepik--Shadow--inject-167"><ellipse id="freepik--path--inject-167" cx="250" cy="416.24" rx="193.89" ry="11.32" style="fill:#f5f5f5"></ellipse></g><g id="freepik--Lamp--inject-167"><rect x="407.56" y="222.07" width="4.16" height="193.84" style="fill:#263238"></rect><polygon points="429.79 415.91 416.52 222.15 412.37 222.44 425.61 415.91 429.79 415.91" style="fill:#263238"></polygon><polygon points="393.67 415.91 406.91 222.44 402.76 222.15 389.49 415.91 393.67 415.91" style="fill:#263238"></polygon><rect x="382.33" y="198.66" width="54.61" height="37.68" style="fill:#90CAF9"></rect><g style="opacity:0.4;isolation:isolate"><rect x="382.33" y="198.66" width="54.61" height="37.68" style="fill:#fff"></rect></g><polygon points="411.72 253.49 411.72 415.9 407.56 415.9 407.56 254.46 411.72 253.49" style="fill:#fff;opacity:0.5;isolation:isolate"></polygon><g style="opacity:0.5;isolation:isolate"><polygon points="429.79 415.9 425.62 415.9 414.46 252.87 418.56 251.92 429.79 415.9" style="fill:#fff"></polygon><polygon points="404.68 255.12 393.66 415.9 389.49 415.9 400.43 256.1 404.68 255.12" style="fill:#fff"></polygon></g></g><g id="freepik--Screen--inject-167"><path d="M209.62,95V373.48a4.33,4.33,0,0,1-4.4,4.33h-138a3.84,3.84,0,0,1-2.76-1.11,4,4,0,0,1-1.17-2.86V94.65A3.51,3.51,0,0,1,66.68,91h39.18a2.77,2.77,0,0,1,2.53,1.76l1.62,4a2.75,2.75,0,0,0,2.52,1.75h47.95A2.74,2.74,0,0,0,163,96.8l1.62-4A2.76,2.76,0,0,1,167.15,91h38.62A4,4,0,0,1,209.62,95Z" style="fill:#263238"></path><rect x="63.31" y="334.53" width="146.3" height="30.26" style="fill:#fff;opacity:0.15;isolation:isolate"></rect><rect x="63.31" y="109.79" width="146.3" height="25.1" style="fill:#fff;opacity:0.15;isolation:isolate"></rect><path d="M121,124.25H91.23a1.92,1.92,0,0,1-1.92-1.91h0a1.91,1.91,0,0,1,1.92-1.91H121a1.9,1.9,0,0,1,1.91,1.91h0A1.91,1.91,0,0,1,121,124.25Z" style="fill:#fff"></path><path d="M85.62,122.34a8.55,8.55,0,1,1-8.55-8.55A8.54,8.54,0,0,1,85.62,122.34Z" style="fill:#263238"></path><path d="M82.89,128.61a8.57,8.57,0,0,1-11.64,0A5.88,5.88,0,0,1,75.31,124a3.43,3.43,0,1,1,5.19-2.94A3.42,3.42,0,0,1,78.82,124,5.89,5.89,0,0,1,82.89,128.61Z" style="fill:#fff"></path><rect x="160.5" y="119.79" width="6.79" height="5.1" style="fill:#fff"></rect><polygon points="169.2 124.25 167.56 123.5 167.56 121.17 169.2 120.42 169.2 124.25" style="fill:#fff"></polygon><path d="M179.44,118.21l-1,.67,1.93,1.92.55-.47a.92.92,0,0,1,1.23,0l1.78,1.78a.91.91,0,0,1,0,1.24l-.47.55,1.93,1.92.66-1a2.14,2.14,0,0,0-.24-2.73l-3.72-3.72A2.14,2.14,0,0,0,179.44,118.21Z" style="fill:#fff"></path><rect x="177.36" y="119.82" width="3.21" height="0.96" transform="translate(137.48 -91.31) rotate(45)" style="fill:#fff"></rect><rect x="182.44" y="124.89" width="3.21" height="0.96" transform="translate(142.55 -93.41) rotate(45)" style="fill:#fff"></rect><path d="M204,119h-6.48a.39.39,0,0,0,0,.77H204a.39.39,0,0,0,0-.77Z" style="fill:#fff"></path><path d="M204,121h-6.48a.39.39,0,0,0-.38.39.38.38,0,0,0,.38.38H204a.38.38,0,0,0,.38-.38A.39.39,0,0,0,204,121Z" style="fill:#fff"></path><path d="M204,123h-6.48a.38.38,0,0,0,0,.76H204a.38.38,0,1,0,0-.76Z" style="fill:#fff"></path><path d="M204,125h-6.48a.38.38,0,0,0,0,.76H204a.38.38,0,1,0,0-.76Z" style="fill:#fff"></path><rect x="81.5" y="100.24" width="2.04" height="2.72" transform="translate(165.04 203.19) rotate(180)" style="fill:#fff;opacity:0.6000000000000001;isolation:isolate"></rect><rect x="78.18" y="99.33" width="2.04" height="3.62" transform="translate(158.4 202.29) rotate(180)" style="fill:#fff;opacity:0.6000000000000001;isolation:isolate"></rect><rect x="74.86" y="98.42" width="2.04" height="4.53" transform="translate(151.75 201.38) rotate(180)" style="fill:#fff;opacity:0.6000000000000001;isolation:isolate"></rect><rect x="71.53" y="97.52" width="2.04" height="5.44" transform="translate(145.11 200.47) rotate(180)" style="fill:#fff;opacity:0.6000000000000001;isolation:isolate"></rect><rect x="189.73" y="99.25" width="1.21" height="2.72" style="fill:#fff;opacity:0.6000000000000001;isolation:isolate"></rect><rect x="191.77" y="98.25" width="9.63" height="4.7" transform="translate(393.16 201.21) rotate(180)" style="fill:#fff;opacity:0.6000000000000001;isolation:isolate"></rect><path d="M100.15,341.74H195a7.92,7.92,0,0,1,7.91,7.92h0a7.91,7.91,0,0,1-7.91,7.91H100.15a7.91,7.91,0,0,1-7.91-7.91h0A7.92,7.92,0,0,1,100.15,341.74Z" style="fill:#263238"></path><path d="M80.8,148.11h61.72a5.53,5.53,0,0,1,5.53,5.53v17a5.53,5.53,0,0,1-5.53,5.53H75.27a0,0,0,0,1,0,0V153.64A5.53,5.53,0,0,1,80.8,148.11Z" style="fill:#fff;opacity:0.15;isolation:isolate"></path><path d="M80.8,219h84.27a5.53,5.53,0,0,1,5.53,5.53v29.79a5.53,5.53,0,0,1-5.53,5.53H75.27a0,0,0,0,1,0,0V224.5A5.53,5.53,0,0,1,80.8,219Z" style="fill:#fff;opacity:0.15;isolation:isolate"></path><path d="M80.8,301.36h44.94a5.53,5.53,0,0,1,5.53,5.53v12.93a5.53,5.53,0,0,1-5.53,5.53H75.27a0,0,0,0,1,0,0V306.9A5.53,5.53,0,0,1,80.8,301.36Z" style="fill:#fff;opacity:0.15;isolation:isolate"></path><path d="M132.9,183h61.72a5.53,5.53,0,0,1,5.53,5.53v22.53a0,0,0,0,1,0,0H132.9a5.53,5.53,0,0,1-5.53-5.53v-17A5.53,5.53,0,0,1,132.9,183Z" style="fill:#90CAF9"></path><path d="M132.9,268.42h61.72a5.53,5.53,0,0,1,5.53,5.53v22.53a0,0,0,0,1,0,0H132.9a5.53,5.53,0,0,1-5.53-5.53V274A5.53,5.53,0,0,1,132.9,268.42Z" style="fill:#90CAF9"></path><line x1="81.99" y1="154.03" x2="141.16" y2="154.03" style="fill:none;stroke:#fff;stroke-linecap:round;stroke-linejoin:round"></line><line x1="81.99" y1="159.11" x2="141.16" y2="159.11" style="fill:none;stroke:#fff;stroke-linecap:round;stroke-linejoin:round"></line><line x1="81.99" y1="164.19" x2="141.16" y2="164.19" style="fill:none;stroke:#fff;stroke-linecap:round;stroke-linejoin:round"></line><line x1="81.99" y1="169.26" x2="109.16" y2="169.26" style="fill:none;stroke:#fff;stroke-linecap:round;stroke-linejoin:round"></line><line x1="81.99" y1="307.46" x2="123.16" y2="307.46" style="fill:none;stroke:#fff;stroke-linecap:round;stroke-linejoin:round"></line><line x1="81.99" y1="312.54" x2="123.16" y2="312.54" style="fill:none;stroke:#fff;stroke-linecap:round;stroke-linejoin:round"></line><line x1="81.99" y1="317.62" x2="93.16" y2="317.62" style="fill:none;stroke:#fff;stroke-linecap:round;stroke-linejoin:round"></line><line x1="133.33" y1="189.43" x2="192.49" y2="189.43" style="fill:none;stroke:#fff;stroke-linecap:round;stroke-linejoin:round"></line><line x1="133.33" y1="194.51" x2="192.49" y2="194.51" style="fill:none;stroke:#fff;stroke-linecap:round;stroke-linejoin:round"></line><line x1="133.33" y1="199.59" x2="192.49" y2="199.59" style="fill:none;stroke:#fff;stroke-linecap:round;stroke-linejoin:round"></line><line x1="133.33" y1="204.66" x2="160.49" y2="204.66" style="fill:none;stroke:#fff;stroke-linecap:round;stroke-linejoin:round"></line><line x1="133.33" y1="274.83" x2="191.49" y2="274.83" style="fill:none;stroke:#fff;stroke-linecap:round;stroke-linejoin:round"></line><line x1="133.33" y1="279.91" x2="191.49" y2="279.91" style="fill:none;stroke:#fff;stroke-linecap:round;stroke-linejoin:round"></line><line x1="133.33" y1="284.99" x2="191.49" y2="284.99" style="fill:none;stroke:#fff;stroke-linecap:round;stroke-linejoin:round"></line><line x1="133.33" y1="290.06" x2="160.49" y2="290.06" style="fill:none;stroke:#fff;stroke-linecap:round;stroke-linejoin:round"></line><line x1="81.99" y1="226.3" x2="163.16" y2="226.3" style="fill:none;stroke:#fff;stroke-linecap:round;stroke-linejoin:round"></line><line x1="81.99" y1="231.37" x2="163.16" y2="231.37" style="fill:none;stroke:#fff;stroke-linecap:round;stroke-linejoin:round"></line><line x1="81.99" y1="236.45" x2="163.16" y2="236.45" style="fill:none;stroke:#fff;stroke-linecap:round;stroke-linejoin:round"></line><line x1="81.99" y1="246.6" x2="163.16" y2="246.6" style="fill:none;stroke:#fff;stroke-linecap:round;stroke-linejoin:round"></line><line x1="81.99" y1="251.68" x2="114.16" y2="251.68" style="fill:none;stroke:#fff;stroke-linecap:round;stroke-linejoin:round"></line><line x1="81.99" y1="241.53" x2="163.16" y2="241.53" style="fill:none;stroke:#fff;stroke-linecap:round;stroke-linejoin:round"></line><circle cx="78.2" cy="349.66" r="7.82" transform="translate(-127.85 56.54) rotate(-22.5)" style="fill:#fff"></circle><g style="opacity:0.05;isolation:isolate"><path d="M129.13,98.51,87,256.28h0l-.47,1.77h0l-.76,2.84h0l-.47,1.77-22,82.38v-99.7L104.52,91h1.34a2.77,2.77,0,0,1,2.53,1.76l1.62,4a2.74,2.74,0,0,0,2.52,1.74Z" style="fill:#fff"></path><path d="M143.56,98.51,101.7,255.29l-.25.94-2.29,8.59-.26.94-34.41,129a4,4,0,0,1-1.18-2.87V376.67L92.92,265.76l.25-.94,2.29-8.59.26-.94L137.57,98.51Z" style="fill:#fff"></path></g></g><g id="freepik--speech-bubble--inject-167"><rect x="261.59" y="191.68" width="75.05" height="35.07" rx="5.07" transform="translate(598.22 418.44) rotate(180)" style="fill:#90CAF9"></rect><polygon points="324.37 224.28 331.56 238.58 317.92 225.24 324.37 224.28" style="fill:#90CAF9"></polygon><rect x="307.69" y="196.44" width="15.55" height="25.55" rx="3.93" transform="translate(524.69 -106.25) rotate(90)" style="fill:#263238"></rect><rect x="303.69" y="202.44" width="23.55" height="13.55" rx="2.93" style="fill:#263238"></rect><rect x="313.69" y="202.44" width="13.55" height="13.55" rx="2.93" style="fill:#fff"></rect><path d="M278.05,200.06a9.13,9.13,0,0,0-5.47,1.27,6.81,6.81,0,0,1,3.06-.45,6.9,6.9,0,1,1-7.45,7.14c0,.14-.07.28-.08.42a9.19,9.19,0,1,0,9.94-8.38Z" style="fill:#fff"></path></g><g id="freepik--Character--inject-167"><path d="M193.38,284.48H323.13a31.7,31.7,0,0,1,31.7,31.7v53.91a0,0,0,0,1,0,0H161.68a0,0,0,0,1,0,0V316.18A31.7,31.7,0,0,1,193.38,284.48Z" style="fill:#263238"></path><path d="M193.38,284.48H323.13a31.7,31.7,0,0,1,31.7,31.7v53.91a0,0,0,0,1,0,0H161.68a0,0,0,0,1,0,0V316.18A31.7,31.7,0,0,1,193.38,284.48Z" style="fill:#fff;opacity:0.4;isolation:isolate"></path><path d="M373.67,303.09h15.21a18.84,18.84,0,0,1,18.84,18.84v94.85a0,0,0,0,1,0,0H354.84a0,0,0,0,1,0,0V321.93A18.84,18.84,0,0,1,373.67,303.09Z" style="fill:#263238"></path><path d="M373.67,303.09h15.21a18.84,18.84,0,0,1,18.84,18.84v94.85a0,0,0,0,1,0,0H354.84a0,0,0,0,1,0,0V321.93A18.84,18.84,0,0,1,373.67,303.09Z" style="fill:#fff;opacity:0.4;isolation:isolate"></path><path d="M407.73,416.77H377.3V318.3a15.21,15.21,0,0,1,15.21-15.21h0a15.22,15.22,0,0,1,15.22,15.21Z" style="fill:#fff;opacity:0.5;isolation:isolate"></path><rect x="180.36" y="378.73" width="190.53" height="38.05" style="fill:#263238"></rect><rect x="180.36" y="378.73" width="190.53" height="38.05" style="fill:#fff;opacity:0.4;isolation:isolate"></rect><rect x="171.66" y="351.88" width="214.7" height="39.92" rx="19.15" style="fill:#263238"></rect><rect x="171.66" y="351.88" width="214.7" height="39.92" rx="19.15" style="fill:#fff;opacity:0.6000000000000001;isolation:isolate"></rect><rect x="171.94" y="351.88" width="51.49" height="39.92" rx="19.15" style="opacity:0.2;isolation:isolate"></rect><path d="M165.8,303.09H181a18.84,18.84,0,0,1,18.84,18.84v94.85a0,0,0,0,1,0,0H147a0,0,0,0,1,0,0V321.93A18.84,18.84,0,0,1,165.8,303.09Z" style="fill:#263238"></path><path d="M165.8,303.09H181a18.84,18.84,0,0,1,18.84,18.84v94.85a0,0,0,0,1,0,0H147a0,0,0,0,1,0,0V321.93A18.84,18.84,0,0,1,165.8,303.09Z" style="fill:#fff;opacity:0.6000000000000001;isolation:isolate"></path><path d="M184.64,303.09h0a15.21,15.21,0,0,1,15.21,15.21v98.48a0,0,0,0,1,0,0H169.43a0,0,0,0,1,0,0V318.3A15.21,15.21,0,0,1,184.64,303.09Z" style="fill:#fff;opacity:0.4;isolation:isolate"></path><path d="M343.41,266.8c-3.75,1.74-12.49,19-15.22,20-1.06.4,1.4-10.73,1.4-10.73l-2.48-3.23s-7,15.44-4.34,20.36c3,5.55,9.82,1.29,20-12.34Z" style="fill:#ebb376"></path><path d="M342.11,283.68s-5.71-6.76-6.06-11.65c0,0,4.55-4.89,8.15-5.23S342.11,283.68,342.11,283.68Z" style="fill:#90CAF9"></path><path d="M342.11,283.68s-5.71-6.76-6.06-11.65c0,0,4.55-4.89,8.15-5.23S342.11,283.68,342.11,283.68Z" style="fill:#fff;opacity:0.8;isolation:isolate"></path><path d="M345.37,247.75s4.61,16.48,17.27,11.82,8.75-15.11,8.75-15.11a3.36,3.36,0,0,0,2.75-4.46c-1.79-6.64-13.89-11.54-13.87-14.1a3,3,0,0,1,2.37-3,2.84,2.84,0,0,0-3.33,2.68s-1.73-1.61-1.2-3.48c0,0-3.76,2.08-1.2,7.91a13.29,13.29,0,0,1-3.15-2.8s1,2.35,4.62,6.12C358.38,233.3,341.52,234,345.37,247.75Z" style="fill:#263238"></path><path d="M232,350.91c.66-.05.14-5.79.14-5.79a13.33,13.33,0,0,1-8-10.69c-.55-4.94-4.13-1.95-3.88,3.45s.43,9.53.6,13.36S225.23,351.38,232,350.91Z" style="fill:#ebb376"></path><path d="M232,350.91c.66-.05.14-5.79.14-5.79a13.33,13.33,0,0,1-8-10.69c-.55-4.94-4.13-1.95-3.88,3.45s.43,9.53.6,13.36S225.23,351.38,232,350.91Z" style="opacity:0.2;isolation:isolate"></path><polygon points="230.31 344.83 230.58 350.8 238.94 351.41 246.6 351.95 247.44 344.81 238.37 344.82 230.31 344.83" style="fill:#ebb376"></polygon><polygon points="230.31 344.83 230.58 350.8 238.94 351.41 246.6 351.95 247.44 344.81 238.37 344.82 230.31 344.83" style="opacity:0.2;isolation:isolate"></polygon><polygon points="220.57 343.06 222.46 348.73 230.67 347.03 238.19 345.46 237.05 338.37 228.32 340.85 220.57 343.06" style="fill:#ebb376"></polygon><path d="M223.76,348.38c.62-.22-1.58-5.65-1.58-5.65s-6.06-1-10.36-8c-2.6-4.23-4.51-.75-2.8,4.38s3,9,4.22,12.69S217.33,350.69,223.76,348.38Z" style="fill:#ebb376"></path><polygon points="228.15 340.91 230.51 347.08 238.11 345.49 237.01 338.38 228.15 340.91" style="opacity:0.2;isolation:isolate"></polygon><path d="M240.45,341.33l1.06,5.16,1.28,6.21,55-.75,8.85,0h2.2l5.71,0h.35c12.72,0,29.32.09,38,.09h.49c14.49-.58.35-27.47.35-27.47Z" style="fill:#90CAF9"></path><path d="M240.45,341.33l1.06,5.16,1.28,6.21,55-.75,8.85,0h2.2l5.71,0h.35c12.72,0,29.32.09,38,.09h.49c14.49-.58.35-27.47.35-27.47Z" style="opacity:0.1;isolation:isolate"></path><path d="M230.82,338.87l2.61,9.52,8.08-1.9.07,0c15.64-3.67,48.77-11.33,53.25-11.54a12.68,12.68,0,0,1,4.19,1c3.09,1.11,7.37,3,12.41,5.2l.19.08a168.22,168.22,0,0,0,23.65,8.42l.2,0a71.27,71.27,0,0,0,17.4,2.43h.49C377.18,351.58,369,311,369,311l-26.25-5.37-7.88,13.09s-1.63-.45-4.21-1.13l-1.69-.46-4.85-1.29c-8.81-2.34-20.6-5.39-25.47-6.37-2.43-.49-9.32,1.86-17.83,5.42l-2.42,1h0l-.77.34c-.86.36-1.72.74-2.6,1.13h0C264.66,322,253,327.68,244.25,332l-6.61,3.33C233.43,337.51,230.82,338.87,230.82,338.87Z" style="fill:#90CAF9"></path><path d="M230.82,338.87l2.61,9.52,8.08-1.9.07,0c15.64-3.67,48.77-11.33,53.25-11.54a12.68,12.68,0,0,1,4.19,1c3.09,1.11,7.37,3,12.41,5.2l.19.08a168.22,168.22,0,0,0,23.65,8.42l.2,0a71.27,71.27,0,0,0,17.4,2.43h.49C377.18,351.58,369,311,369,311l-26.25-5.37-7.88,13.09s-1.63-.45-4.21-1.13l-1.69-.46-4.85-1.29c-8.81-2.34-20.6-5.39-25.47-6.37-2.43-.49-9.32,1.86-17.83,5.42l-2.42,1h0l-.77.34c-.86.36-1.72.74-2.6,1.13h0C264.66,322,253,327.68,244.25,332l-6.61,3.33C233.43,337.51,230.82,338.87,230.82,338.87Z" style="opacity:0.1;isolation:isolate"></path><path d="M342.76,305.66l-3.27,22.87L299,336l-57.44,10.52,61.18-20.3,32,1.26a16,16,0,0,0-4.07-9.81l4.21,1.13Z" style="opacity:0.2;isolation:isolate"></path><path d="M342.76,305.66,369,311s.07-14.56,2.13-22.6c.67-2.6,1.51-5.53,2.58-8.92.45-1.44.95-3,1.49-4.59s1-3.12,1.62-4.81A78.43,78.43,0,0,0,366,267.5a83.63,83.63,0,0,0-11.71-1.23c-5.06,0-10.89.53-10.89.53s-.83.2-1.35,5.57C341.59,277.42,341.71,287.31,342.76,305.66Z" style="fill:#90CAF9"></path><path d="M342.76,305.66,369,311a2.33,2.33,0,0,0,.18-.89c.11-3.39.19-14.82,1.95-21.71.48-1.86,1-3.89,1.72-6.12.27-.9.55-1.83.86-2.8.45-1.44.94-3,1.49-4.58s1-3.12,1.62-4.81A77.18,77.18,0,0,0,366,267.5a84.85,84.85,0,0,0-11.7-1.23c-5.07,0-10.9.53-10.9.53s-.82.2-1.35,5.57C341.59,277.42,341.71,287.31,342.76,305.66Z" style="fill:#fff;opacity:0.8;isolation:isolate"></path><path d="M363.47,287.24c-.28,5.82-4.34,10.36-9.08,10.14s-8.36-5.12-8.08-10.94,4.33-10.37,9.07-10.15S363.74,281.41,363.47,287.24Z" style="fill:#263238"></path><path d="M355.43,277.93a3.42,3.42,0,0,1,.69,2.08,2.92,2.92,0,0,1-2.65,3.11,2.4,2.4,0,0,1-.89-.19,2.47,2.47,0,0,0,2,1,2.91,2.91,0,0,0,2.66-3.11A3.11,3.11,0,0,0,355.43,277.93Z" style="fill:#fff"></path><polygon points="361.66 287.9 361.82 288.23 362.19 288.29 361.93 288.55 361.99 288.92 361.66 288.74 361.33 288.92 361.39 288.55 361.12 288.29 361.49 288.23 361.66 287.9" style="fill:#fff"></polygon><polygon points="356.58 287.61 356.74 287.95 357.11 288 356.85 288.26 356.91 288.63 356.58 288.46 356.25 288.63 356.31 288.26 356.04 288 356.41 287.95 356.58 287.61" style="fill:#fff"></polygon><polygon points="348.42 287.1 348.59 287.44 348.96 287.49 348.69 287.75 348.75 288.12 348.42 287.95 348.09 288.12 348.15 287.75 347.89 287.49 348.26 287.44 348.42 287.1" style="fill:#fff"></polygon><polygon points="353.03 294.31 353.15 294.55 353.4 294.58 353.22 294.76 353.26 295.01 353.03 294.89 352.81 295.01 352.85 294.76 352.67 294.58 352.92 294.55 353.03 294.31" style="fill:#fff"></polygon><polygon points="360.15 282.01 360.27 282.24 360.52 282.27 360.34 282.45 360.38 282.7 360.15 282.58 359.93 282.7 359.97 282.45 359.79 282.27 360.04 282.24 360.15 282.01" style="fill:#fff"></polygon><polygon points="357.97 292.32 358.08 292.55 358.34 292.58 358.15 292.76 358.2 293.01 357.97 292.9 357.74 293.01 357.79 292.76 357.6 292.58 357.86 292.55 357.97 292.32" style="fill:#fff"></polygon><polygon points="350.04 283.01 350.1 283.14 350.25 283.16 350.14 283.26 350.17 283.4 350.04 283.34 349.91 283.4 349.94 283.26 349.83 283.16 349.98 283.14 350.04 283.01" style="fill:#fff"></polygon><polygon points="352.37 288.44 352.43 288.57 352.58 288.59 352.47 288.69 352.5 288.83 352.37 288.76 352.24 288.83 352.26 288.69 352.16 288.59 352.31 288.57 352.37 288.44" style="fill:#fff"></polygon><polygon points="349.71 292.82 349.78 292.95 349.92 292.97 349.82 293.07 349.84 293.21 349.71 293.14 349.59 293.21 349.61 293.07 349.51 292.97 349.65 292.95 349.71 292.82" style="fill:#fff"></polygon><path d="M356.46,272c6.43-.82,8.36-3.57,8.36-3.57-2.63-2.48-2.15-6.13-1.48-8.41a14,14,0,0,1,.79-2.1l-7.73,1.45a22.73,22.73,0,0,1,.3,3.25,9.89,9.89,0,0,1-.22,2.4c-.53,2.31-1.84,2.34-1.84,2.34C353.28,269.93,356.46,272,356.46,272Z" style="fill:#ebb376"></path><path d="M356.7,262.65a9.89,9.89,0,0,1-.22,2.4c3.07-.41,5.4-2.87,6.86-5a14,14,0,0,1,.79-2.1l-7.73,1.45A22.73,22.73,0,0,1,356.7,262.65Z" style="opacity:0.2;isolation:isolate"></path><path d="M354.64,237.69c-7.12,1.45-8.63,5.73-7.66,13.17,1.22,9.3,4.58,15.4,13.08,11.63C371.61,257.36,366.46,235.28,354.64,237.69Z" style="fill:#ebb376"></path><path d="M351.5,249.53A15.4,15.4,0,0,1,350,252.9a2,2,0,0,0,2,.42Z" style="fill:#d58745"></path><path d="M354.81,243.13a3.77,3.77,0,0,1,3.3.44" style="fill:none;stroke:#263238;stroke-linecap:round;stroke-linejoin:round;stroke-width:0.7246800000000001px"></path><path d="M349.57,243.88a3.36,3.36,0,0,0-2.71,1.17" style="fill:none;stroke:#263238;stroke-linecap:round;stroke-linejoin:round;stroke-width:0.7246800000000001px"></path><path d="M364.86,248.1s-4.52-5.17-4.93-9.79c0,0-15.28-2.88-13.06,11.58,0,0-4-12.43,8.21-15.21s15.77,15.13,10.54,21.75C365.62,256.43,367.67,251.34,364.86,248.1Z" style="fill:#263238"></path><path d="M364,249.84a3.18,3.18,0,0,1,2.78-3.54c2.25-.21,4.23,4.11-1,6.31C365,252.93,364.4,252.25,364,249.84Z" style="fill:#ebb376"></path><path d="M352.27,255.46a17.63,17.63,0,0,1,1.67,2.07l.43-.2c1.9-.94,2.48-2,2.54-2.9a2.72,2.72,0,0,0-.25-1.27,2.6,2.6,0,0,0-.38-.64,10,10,0,0,1-3.37,2.61Z" style="fill:#263238"></path><path d="M352.91,255.13l.51.6c1.8-.89,2.94-1.75,3.24-2.57a2.6,2.6,0,0,0-.38-.64A10,10,0,0,1,352.91,255.13Z" style="fill:#fff"></path><path d="M354.37,257.33c1.9-.94,2.48-2,2.54-2.9a6.67,6.67,0,0,0-1.91,1.46A2.54,2.54,0,0,0,354.37,257.33Z" style="fill:#de5753"></path><path d="M354.89,238.2s5.26,11.13,12.61,9.47-7.07-14.16-7.07-14.16-13-2.09-17.59,5.52,4,10.86,4,10.86S344.57,240.91,354.89,238.2Z" style="fill:#263238"></path><path d="M354.8,237.35s.76,8.18,7.17,9.79" style="fill:none;stroke:#263238;stroke-linecap:round;stroke-linejoin:round;stroke-width:0.5px"></path><path d="M355.66,248.44c0,.57.35,1,.73,1s.66-.49.64-1.05-.35-1-.73-1S355.64,247.88,355.66,248.44Z" style="fill:#263238"></path><path d="M356.46,247.41l-1.25-.43S355.87,248,356.46,247.41Z" style="fill:#263238"></path><path d="M348.64,248.61c0,.56.34,1,.72,1s.66-.48.64-1-.35-1-.72-1S348.61,248,348.64,248.61Z" style="fill:#263238"></path><path d="M349.44,247.58l-1.25-.44S348.84,248.15,349.44,247.58Z" style="fill:#263238"></path><path d="M338.74,278.19a.65.65,0,0,1-.67.74h-7.39a.85.85,0,0,1-.83-.74l-1.65-14.58a.73.73,0,0,1,.66-.84h7.39a1,1,0,0,1,.84.84Z" style="fill:#263238"></path><path d="M336.27,263.51l1.67,14.73a.56.56,0,0,1-.58.69h-6.27c-.42,0-1.19-.23-1.23-.64l-1.67-14.78c-.05-.41.67-.74,1.09-.74h6.26A.76.76,0,0,1,336.27,263.51Z" style="fill:#fff;opacity:0.5"></path><path d="M327.11,272.87a21.37,21.37,0,0,1,.33-4.24c.33-.81,4.11-2.64,4.85-2.36s1,7,.33,7.92a10.16,10.16,0,0,1-3,1.91Z" style="fill:#ebb376"></path><path d="M350.57,278.93a30.83,30.83,0,0,0-1.85-4.32c-.54-.64-8.21-3.47-8.85-3.55s0,6.29,1,7.37,7.14,3.22,7.14,3.22Z" style="fill:#ebb376"></path><path d="M349.07,316a31.83,31.83,0,0,1,.29-7.8s.49,7.19,3.71,7.36,2.27-6.2-3.71-7.36c-4.94-1-7.14,2-5.94,3.78s5.94-3.78,5.94-3.78-1.69,5.62-3.18,7.8" style="fill:none;stroke:#fff;stroke-linecap:round;stroke-linejoin:round;stroke-width:0.5px"></path><path d="M348,281.65l2.6-2.72s17.18,14.41,19.61,14.58c2.68.19.82-11.38.82-11.38l5.83-12s5.24,25.33-1.35,30.34S354.11,289.61,348,281.65" style="fill:#ebb376"></path><path d="M376.12,269.82c2.33.7,4.43,11.07,4.43,11.07l-10.19,7.42s-1-3.94,0-10.93S376.12,269.82,376.12,269.82Z" style="fill:#90CAF9"></path><path d="M376.12,269.82c2.33.7,4.43,11.07,4.43,11.07l-10.19,7.42s-1-3.94,0-10.93S376.12,269.82,376.12,269.82Z" style="fill:#fff;opacity:0.8;isolation:isolate"></path></g></svg>